<svg width="1594" height="1000" viewBox="0 0 1594 1000" fill="none" xmlns="http://www.w3.org/2000/svg">
<g clip-path="url(#clip0_402_5)">
<path d="M1000 500C1000 776.142 776.142 1000 500 1000C223.858 1000 0 776.142 0 500C0 223.858 223.858 0 500 0C776.142 0 1000 223.858 1000 500ZM208.129 500C208.129 661.196 338.804 791.871 500 791.871C661.196 791.871 791.871 661.196 791.871 500C791.871 338.804 661.196 208.129 500 208.129C338.804 208.129 208.129 338.804 208.129 500Z" fill="white"/>
<path d="M1593.84 36.6269C1517.64 5.73576 1435 -5.88555 1353.23 2.79236C1271.46 11.4703 1193.1 40.1795 1125.08 86.3771C1057.06 132.575 1001.48 194.835 963.27 267.642C925.059 340.449 905.393 421.557 906.014 503.78C906.636 586.003 927.526 666.804 966.834 739.025C1006.14 811.247 1062.65 872.659 1131.37 917.823C1200.08 962.987 1278.87 990.508 1360.75 997.949C1442.64 1005.39 1525.1 992.52 1600.83 960.48L1519.59 768.477C1475.44 787.158 1427.36 794.661 1379.62 790.323C1331.88 785.985 1285.94 769.939 1245.88 743.607C1205.82 717.274 1172.87 681.469 1149.95 639.361C1127.03 597.253 1114.85 550.143 1114.49 502.204C1114.13 454.265 1125.59 406.976 1147.87 364.526C1170.15 322.077 1202.55 285.777 1242.21 258.842C1281.87 231.907 1327.56 215.169 1375.23 210.109C1422.91 205.049 1471.09 211.825 1515.52 229.836L1593.84 36.6269Z" fill="white"/>
</g>
<defs>
<clipPath id="clip0_402_5">
<rect width="1594" height="1000" fill="white"/>
</clipPath>
</defs>
</svg>
